PathFileType	4	(X/Y/Z)	walk-thru1-5-TP.trc
DataRate	CameraRate	NumFrames	NumMarkers	Units	OrigDataRate	OrigDataStartFrame	OrigNumFrames
120.00	120.00	       5	60	mm	120.00	171	       454
Frame#	Time	Top.Head			Front.Head			Rear.Head			Jaw			C7			R.Clavicle			L.Clavicle			R.Shoulder			L.Shoulder			R.Scapula			L.Scapula			R.Scap.Inf			R.Biceps.Lateral			R.Elbow			R.Elbow.Medial			R.Forearm			R.Ulna			R.Radius			R.Wrist			R.Thumb.M1			R.Thumb.M2			R.Thumb.M3			R.Finger3.M1			R.Finger3.M2			R.Finger3.M3			L.Biceps.Lateral			L.Elbow			L.Elbow.Medial			L.Forearm			L.Ulna			L.Radius			L.Wrist			L.Thumb.M1			L.Thumb.M2			L.Thumb.M3			L.Finger3.M1			L.Finger3.M2			L.Finger3.M3			V.Sacral			R.ASIS			L.ASIS			R.Thigh			R.Thigh.Front			R.Knee			R.Knee.Medial			R.Shank			R.Ankle			R.Ankle.Medial			R.Heel			R.Toe			R.MedFoot			L.Thigh			L.Knee			L.Knee.Medial			L.Shank			L.Ankle			L.Ankle.Medial			L.Heel			L.Toe			L.MedFoot			V_mid_ASIS			V_R_Knee_JC			V_L_Knee_JC			V_R_Elbow_JC			V_L_Elbow_JC			V_R_Ankle_JC			V_L_Ankle_JC			V_R_Wrist_JC			V_L_Wrist_JC			V_R_ScaTrpz_1stMC_JC			V_R_1stMC_1stPP_JC			V_R_1stPP_1stDP_JC			V_R_LunCap_3rdMC_JC			V_R_3rdMC_3rdPP_JC			V_R_3rdPP_3rdMP_JC			V_R_3rdMP_3rdDP_JC			V_L_ScaTrpz_1stMC_JC			V_L_1stMC_1stPP_JC			V_L_1stPP_1stDP_JC			V_L_LunCap_3rdMC_JC			V_L_3rdMC_3rdPP_JC			V_L_3rdPP_3rdMP_JC			V_L_3rdMP_3rdPP_JC			V_ROOT_JC			V_R_Hip_JC			V_L_Hip_JC			V_R_GlenHum_JC			V_L_GlenHum_JC			V_ForeHead_Ctr			V_Vertex			V_Sagit_Lambdoid_Suture			V_R_FrontoTemp			V_L_FrontoTemporal			V_R_ParietalOccip			V_L_ParietalOcciptal			V_R_Temporal			V_L_Temporal			V_mid_FrontRearHead			V_mid_RLGlenHumCtrs			V_C7_vert			V_C1_vert			V_Mid_Hip			
		X1	Y1	Z1	X2	Y2	Z2	X3	Y3	Z3	X4	Y4	Z4	X5	Y5	Z5	X6	Y6	Z6	X7	Y7	Z7	X8	Y8	Z8	X9	Y9	Z9	X10	Y10	Z10	X11	Y11	Z11	X12	Y12	Z12	X13	Y13	Z13	X14	Y14	Z14	X15	Y15	Z15	X16	Y16	Z16	X17	Y17	Z17	X18	Y18	Z18	X19	Y19	Z19	X20	Y20	Z20	X21	Y21	Z21	X22	Y22	Z22	X23	Y23	Z23	X24	Y24	Z24	X25	Y25	Z25	X26	Y26	Z26	X27	Y27	Z27	X28	Y28	Z28	X29	Y29	Z29	X30	Y30	Z30	X31	Y31	Z31	X32	Y32	Z32	X33	Y33	Z33	X34	Y34	Z34	X35	Y35	Z35	X36	Y36	Z36	X37	Y37	Z37	X38	Y38	Z38	X39	Y39	Z39	X40	Y40	Z40	X41	Y41	Z41	X42	Y42	Z42	X43	Y43	Z43	X44	Y44	Z44	X45	Y45	Z45	X46	Y46	Z46	X47	Y47	Z47	X48	Y48	Z48	X49	Y49	Z49	X50	Y50	Z50	X51	Y51	Z51	X52	Y52	Z52	X53	Y53	Z53	X54	Y54	Z54	X55	Y55	Z55	X56	Y56	Z56	X57	Y57	Z57	X58	Y58	Z58	X59	Y59	Z59	X60	Y60	Z60	

171	1.417	563.40021	-63.80077	1546.21460	460.88354	-55.29255	1445.15344	673.75354	-63.74475	1463.87756	491.56958	-40.39314	1305.51196	690.58075	-46.33709	1355.69250	614.46741	70.42383	1267.18848	587.21576	-145.84065	1274.27209	669.39166	142.29674	1262.99536	631.44983	-242.41629	1274.09485	743.76416	36.65771	1281.04041	733.81335	-147.26292	1281.49268	791.49512	17.98948	1199.09241	664.55096	196.04715	1121.68713	715.92712	214.41075	966.09406	742.36414	141.45064	952.02136	648.38855	214.42001	882.00336	690.51447	238.67577	801.64496	627.15149	200.03398	747.27820	641.36877	238.92406	714.36694	609.67059	204.68655	692.00128	600.95636	191.23917	655.92096	598.37457	183.47313	613.74268	633.48657	257.37665	637.72693	638.33459	236.96115	587.73450	655.95081	213.65683	557.63263	653.46173	-304.46768	1130.54272	709.52112	-319.20499	989.11975	737.53815	-241.16846	983.68274	627.63641	-293.53036	922.46472	636.75391	-328.01862	831.87457	588.82123	-266.48019	791.58154	577.39813	-313.83234	764.61255	558.75897	-268.74771	754.13763	549.93384	-244.79343	719.05353	548.20807	-237.20712	666.67578	552.75641	-307.33270	678.17627	551.54321	-295.06580	639.23779	565.35895	-266.86224	604.06024	800.93134	-35.99504	893.77203	603.06128	110.98901	948.98877	619.12628	-208.24933	936.26178	533.29633	138.88116	572.00116	425.39749	66.64487	519.15637	459.29999	99.16128	453.17557	450.14496	-14.62103	455.94186	426.65070	44.85374	288.28699	462.61258	56.80608	67.59321	446.49182	-32.46453	85.98187	518.00415	0.83370	36.84639	319.04636	30.89624	48.61699	374.07730	-11.55285	70.83484	690.76666	-213.92270	562.92670	707.14441	-178.15215	425.56430	686.05280	-59.39512	412.11768	755.17816	-112.00165	238.19908	873.32629	-115.98953	72.57745	851.85602	-29.07369	93.95200	933.90399	-64.06579	60.37301	729.56689	-85.64035	36.59045	783.34882	-52.46077	64.70303																																																																																																																															
172	1.425	557.65002	-62.27261	1545.49023	455.73984	-54.52846	1444.77942	668.24677	-62.60079	1463.32825	485.08163	-40.59840	1305.10437	685.09595	-45.92728	1355.29663	608.76642	70.00063	1266.28394	582.55524	-144.13008	1273.53577	663.00177	143.16681	1261.87988	626.35339	-240.66818	1273.80566	737.70245	37.46711	1280.16821	728.05524	-145.32278	1280.63452	784.91669	18.37184	1197.82092	658.44202	197.56549	1120.63293	709.08917	213.63263	964.15100	735.18988	141.93433	950.91425	641.01971	213.36897	880.71552	683.16223	238.04434	800.73431	619.41467	199.02663	745.78613	632.37604	238.83061	713.65320	600.20215	205.20464	691.28210	593.35724	191.08206	654.79431	591.04187	182.43866	613.43127	623.75366	258.56964	637.86383	628.74011	238.39281	587.73279	646.05280	216.35165	555.86041	648.59778	-304.25800	1130.16284	704.10437	-317.16055	988.68982	734.83087	-239.54773	982.95819	622.71637	-292.70227	921.55096	631.73834	-328.24533	831.33246	584.15149	-266.68512	790.94855	572.04083	-313.97037	764.26495	553.76917	-270.07599	753.64246	544.98578	-245.27394	718.37811	542.70056	-236.34915	665.98206	547.12524	-307.99072	677.70538	546.73199	-295.00879	638.82709	558.83765	-268.19876	604.03882	794.32458	-35.12222	892.95233	595.61841	110.07210	948.29626	611.95142	-208.71892	935.31873	526.62915	138.65109	572.74817	417.15234	65.28482	518.33911	451.99799	97.25484	453.11023	442.64075	-14.98118	456.08188	421.76575	45.09891	287.30103	461.67960	55.93233	67.68906	445.36520	-33.70550	85.43647	517.63147	0.53169	37.27726	320.98981	27.45071	45.02752	373.72708	-11.92545	70.07538	685.07294	-214.08644	562.16608	700.73651	-178.78151	425.35687	680.93518	-59.20580	411.05383	752.71143	-111.70484	237.74048	872.28046	-116.70470	73.68404	850.56787	-29.39412	94.68510	933.22858	-64.23084	63.16116	729.52045	-85.71425	36.55984	783.64587	-52.75325	63.98579																																																																																																																															
173	1.433	551.03900	-61.49530	1544.99524	449.52225	-53.54799	1445.18848	662.58386	-62.66138	1462.74365	480.21570	-38.29860	1304.75793	678.62726	-44.95303	1354.72644	601.96136	71.12073	1266.29919	576.59113	-143.81471	1273.46301	657.73395	143.13641	1261.65186	621.76746	-240.59737	1273.38513	732.33423	38.00318	1279.33191	722.26404	-144.62387	1280.04089	778.69739	19.60373	1197.13623	651.02502	197.96710	1120.20447	701.48212	216.32672	963.11078	726.66199	142.64453	948.31354	633.21033	214.18236	879.82117	673.69922	238.42030	799.97119	610.90332	198.84885	744.72974	623.76740	239.46259	713.01184	593.98651	204.17706	690.00653	584.62103	190.30655	654.40253	583.07178	183.28394	611.85944	614.34003	257.42252	636.60193	619.64471	240.00893	585.95496	638.15308	218.06822	554.98889	643.02661	-301.98602	1129.93164	699.35675	-315.51602	988.10724	729.74744	-239.25426	982.72430	616.84821	-292.35284	921.21686	625.94238	-326.06122	830.89886	576.95093	-265.71475	792.34235	567.54504	-312.54337	763.71118	549.16223	-267.70746	753.49329	540.10938	-243.98462	717.79431	537.38025	-235.72868	665.67096	541.63696	-308.30460	677.73865	540.77563	-295.67920	638.32654	551.24976	-269.62714	603.36865	786.94366	-34.22960	892.43018	588.94513	111.27139	948.56238	605.46216	-208.51459	934.58557	517.97925	137.20978	572.75635	409.52090	64.53064	518.07367	443.27301	96.99022	453.66461	436.35669	-16.04136	455.95386	415.89944	43.43144	286.38205	461.01404	55.53502	67.95663	443.67719	-34.47576	84.97517	516.17358	-0.53613	38.50681	319.73871	27.67227	46.22522	371.90753	-11.18318	68.79751	678.47998	-214.05081	561.51178	694.42627	-179.27859	424.93799	674.81146	-59.67093	409.44525	749.70691	-111.45369	238.28320	871.32007	-117.24479	75.61763	849.69513	-29.39041	96.74547	932.69513	-64.08360	65.15165	729.30225	-85.76917	36.69739	782.06781	-52.18909	65.35442																																																																																																																															
174	1.442	545.29584	-60.70806	1545.64136	444.01276	-53.22828	1445.28625	657.40375	-60.86804	1462.20728	473.47824	-39.37279	1304.44165	673.24377	-44.67485	1354.94934	596.28998	72.08787	1265.56970	570.80304	-143.39854	1273.19958	650.29071	145.00963	1260.41589	615.83246	-240.09549	1273.19092	725.98242	39.69397	1278.64429	716.95691	-143.71773	1279.40906	772.74182	20.46979	1196.57031	644.40161	198.93117	1119.25842	693.19006	216.54840	962.90106	720.08575	143.31195	947.79651	625.13861	213.58223	879.20001	665.75568	239.56879	799.36670	602.92987	200.22171	744.83325	614.65826	239.85545	712.33704	585.76202	203.87784	689.50018	575.38892	190.81404	653.12866	575.06281	182.83397	610.21503	605.42603	258.72412	636.60248	611.72058	242.19936	586.39893	628.47534	219.91006	553.16785	638.47327	-301.97891	1129.67664	693.67444	-315.14145	988.20941	720.87622	-237.36894	982.65070	611.15643	-290.89404	921.59412	620.90265	-326.59903	830.53088	572.09094	-265.12119	791.11035	561.85986	-312.58124	763.13196	543.39783	-269.09692	753.07806	533.44128	-244.96983	717.65924	531.09320	-237.25920	664.43115	536.26483	-309.13718	677.76312	534.64191	-297.57788	639.06653	544.84473	-270.26624	602.24994	780.49420	-34.44110	891.61792	581.95032	111.37706	948.60474	598.16437	-207.61298	934.78491	509.21823	137.34283	574.35681	402.15039	62.88348	518.39734	435.84286	95.58530	453.55209	430.29337	-16.41293	455.96945	411.50189	42.68986	285.95950	458.80673	56.38646	68.42732	442.56564	-34.76310	84.82047	515.14868	0.09871	39.14196	316.44366	32.09186	47.20375	370.76563	-11.02106	67.83301	671.67041	-214.29945	561.40131	688.35626	-179.39998	424.36465	668.35925	-59.76905	409.07703	745.42175	-112.70130	238.26170	870.78070	-117.14677	77.85606	848.88458	-29.95362	98.70454	931.74469	-65.13470	69.05295	729.15533	-85.75880	36.46383	781.50012	-52.46511	65.91641																																																																																																																															
175	1.450	540.08783	-60.29031	1545.22168	438.80920	-53.19190	1445.24963	651.07648	-60.47716	1462.37488	467.40060	-38.34164	1305.11853	667.72058	-42.70012	1354.11951	590.24799	71.91479	1265.35449	564.77838	-142.49854	1273.39722	645.13910	145.56845	1260.68884	609.95630	-238.07498	1273.54968	719.79315	39.75316	1278.05957	711.24609	-142.80339	1279.52783	766.65155	22.12035	1196.24561	637.70795	198.96532	1118.37341	684.91309	217.06866	961.51038	712.67657	144.56224	947.19611	616.48132	213.30786	879.00751	657.11957	239.73796	798.78638	594.58447	199.58563	743.54395	606.66003	239.37964	711.70349	576.87213	204.70645	689.38214	568.62231	190.35696	653.32922	566.36908	183.19054	610.64117	596.24506	258.65720	636.46387	602.01544	242.23807	585.81085	618.10004	222.02776	553.05322	633.03784	-301.19476	1129.49304	688.59723	-313.77615	988.01056	717.58832	-236.40250	981.95081	606.71472	-290.46616	921.18030	616.85034	-325.40125	830.22284	568.39648	-264.89914	790.72290	557.46008	-312.72348	763.26965	539.29651	-267.84097	753.17200	528.45959	-244.91458	717.44568	526.93890	-239.69646	662.56329	530.63055	-310.00690	678.23792	528.39050	-300.07263	639.29248	537.11780	-272.49390	602.13776	773.46387	-33.34261	891.41577	575.84937	110.36867	948.43359	590.99341	-208.29720	934.02264	500.58542	136.96407	575.76575	395.53238	61.80880	518.78223	428.62122	93.84154	454.00070	424.06473	-15.83064	455.87671	407.18976	42.08648	285.54095	457.84412	56.53864	68.36324	441.41251	-34.79110	84.53073	514.54645	1.46954	40.00671	313.60117	36.57929	45.43336	369.63123	-11.34771	67.49488	665.10760	-214.29143	561.21069	681.09753	-180.67734	423.51511	660.30615	-62.49118	407.98367	741.96173	-112.04913	238.35219	868.95654	-118.23069	79.22163	847.60956	-30.63853	100.70454	930.74408	-65.27697	71.71295	728.85962	-85.48627	36.32369	780.39166	-53.41065	66.45073																																																																																																																															
